<svg xmlns="http://www.w3.org/2000/svg" xmlns:xlink="http://www.w3.org/1999/xlink" width="1055.032" height="1055.032" viewBox="0 0 1055.032 1055.032">
  <defs>
    <clipPath id="clip-path">
      <rect id="Rectangle_31" data-name="Rectangle 31" width="1055.032" height="1055.032" transform="translate(0 -0.002)" fill="none"/>
    </clipPath>
  </defs>
  <g id="Group_81" data-name="Group 81" transform="translate(0 0.002)">
    <g id="Group_80" data-name="Group 80" clip-path="url(#clip-path)">
      <path id="Path_104" data-name="Path 104" d="M753.615,494.308a40.578,40.578,0,0,0-12.9-11.106,36.126,36.126,0,0,0-17.68-4.231,43.178,43.178,0,0,0-18.224,3.687,41.7,41.7,0,0,0-13.771,10.084,44.242,44.242,0,0,0-8.785,14.97,53.813,53.813,0,0,0-3.031,18.114,66.063,66.063,0,0,0,2.6,18.224,54.152,54.152,0,0,0,7.774,16.481,41.5,41.5,0,0,0,12.9,11.927,34.474,34.474,0,0,0,17.891,4.553A40.857,40.857,0,0,0,738.711,573a41.358,41.358,0,0,0,13.771-10.85,49.65,49.65,0,0,0,8.674-15.725,56.647,56.647,0,0,0,3.087-18.391,61.066,61.066,0,0,0-2.71-18.113,49.669,49.669,0,0,0-7.918-15.615" fill="#fff"/>
      <path id="Path_105" data-name="Path 105" d="M339.065,571.414a24.514,24.514,0,0,0-7.7-8.129,27.161,27.161,0,0,0-9.995-3.909,56.674,56.674,0,0,0-10.024-.978,55.834,55.834,0,0,0-12.143,1.3l-.877,49.464q3.254.656,6.4,1.188a36.348,36.348,0,0,0,6.231.544,56.624,56.624,0,0,0,9.995-.977,29.232,29.232,0,0,0,10.2-3.909,22.749,22.749,0,0,0,11.061-21.145,25.7,25.7,0,0,0-3.143-13.449" fill="#fff"/>
      <path id="Path_106" data-name="Path 106" d="M527.516,0C236.177,0,0,236.175,0,527.514S236.177,1055.03,527.516,1055.03s527.516-236.177,527.516-527.516S818.855,0,527.516,0M445.668,642.346a68.583,68.583,0,0,1-17.68,22.122,95.164,95.164,0,0,1-25.432,14.859,180.319,180.319,0,0,1-30.041,9.007,231.545,231.545,0,0,1-31.34,4.342q-15.725,1.111-29.385,1.111-13.449,0-27.875-.977t-28.742-3.4a248.713,248.713,0,0,1-28.2-6.419,160.415,160.415,0,0,1-26.242-10.084l-.444-279.35a262.871,262.871,0,0,1,25.809-9.007q13.66-4.01,27.875-6.719t28.308-4.12q14.1-1.41,27.331-1.41a252.537,252.537,0,0,1,31.1,1.954,171.728,171.728,0,0,1,30.263,6.508,134.42,134.42,0,0,1,27.108,11.817,88.2,88.2,0,0,1,22.012,17.891A78.593,78.593,0,0,1,434.84,435.2a91.9,91.9,0,0,1,5.319,32.539,72.921,72.921,0,0,1-3.465,22.778,63.183,63.183,0,0,1-9.995,19.09,61.739,61.739,0,0,1-15.792,14.416,68.454,68.454,0,0,1-21.045,8.784,93.894,93.894,0,0,1,25.7,10.85,76.093,76.093,0,0,1,19.779,17.347A77.14,77.14,0,0,1,447.922,584a82.682,82.682,0,0,1,4.409,27.331,67.735,67.735,0,0,1-6.663,31.018m116.209,36.2-91.532,4.775L461.66,389.216l115.4-6.075ZM860.551,522.394A157.24,157.24,0,0,1,856,560.464a149.013,149.013,0,0,1-13.127,34.427,142.335,142.335,0,0,1-20.823,29.386,132.531,132.531,0,0,1-27.542,22.888,133.889,133.889,0,0,1-71.487,20.179,136.323,136.323,0,0,1-37.2-4.986,141.282,141.282,0,0,1-33.083-13.993,133.059,133.059,0,0,1-27.875-21.689,134.914,134.914,0,0,1-21.256-28.2,145.2,145.2,0,0,1-13.66-33.317,139.547,139.547,0,0,1-4.876-37.093,151.51,151.51,0,0,1,17.681-71.143,147.416,147.416,0,0,1,20.711-29.5,136.639,136.639,0,0,1,27.22-23.211,130.637,130.637,0,0,1,32.64-15.181,125.06,125.06,0,0,1,37.092-5.42,161.665,161.665,0,0,1,57.372,9.762,121.59,121.59,0,0,1,72.664,71.687,155.887,155.887,0,0,1,10.106,57.327" fill="#fff"/>
      <path id="Path_107" data-name="Path 107" d="M325.783,512.088a30.5,30.5,0,0,0,11.605-8.673,23.891,23.891,0,0,0,4.765-15.726,20.907,20.907,0,0,0-2.6-10.739,24.017,24.017,0,0,0-6.386-7.263,25.953,25.953,0,0,0-8.24-4.12,28.571,28.571,0,0,0-7.918-1.3,27.927,27.927,0,0,0-8.463,1.3,76.339,76.339,0,0,0-8.029,3.031l-1.3,48.154a108.934,108.934,0,0,0,12.361-.866,51,51,0,0,0,14.2-3.8" fill="#fff"/>
    </g>
  </g>
</svg>
