<svg xmlns="http://www.w3.org/2000/svg" width="20.973" height="10.077" viewBox="0 0 20.973 10.077">
  <g id="delivery-truck-truck-svgrepo-com" transform="translate(0 -133)">
    <g id="Group_6" data-name="Group 6" transform="translate(2.196 133)">
      <g id="Group_5" data-name="Group 5">
        <path id="Path_3" data-name="Path 3" d="M72.275,138.055l-2.433-2.777a.416.416,0,0,0-.315-.143H67.5v-1.716a.42.42,0,0,0-.418-.418H58.454a.42.42,0,0,0-.418.418v.565H54.018a.418.418,0,0,0,0,.836h4.018v5.415H55.619a.418.418,0,1,0,0,.836h2.417v.426a.42.42,0,0,0,.418.418h.872a1.58,1.58,0,0,0,3.048,0h5.575a1.58,1.58,0,0,0,3.048,0h.963a.42.42,0,0,0,.418-.418v-3.166A.422.422,0,0,0,72.275,138.055ZM60.85,142.241a.746.746,0,1,1,.746-.746A.748.748,0,0,1,60.85,142.241Zm1.524-1.163a1.58,1.58,0,0,0-3.048,0h-.455v-7.242h7.791v7.238H62.374Zm7.1,1.163a.746.746,0,1,1,.745-.746A.748.748,0,0,1,69.473,142.241Zm2.069-1.163H71a1.58,1.58,0,0,0-3.048,0H67.5V135.97h1.835l2.2,2.515v2.593Z" transform="translate(-53.6 -133)" fill="#fff"/>
      </g>
    </g>
    <g id="Group_8" data-name="Group 8" transform="translate(2.2 140.234)">
      <g id="Group_7" data-name="Group 7" transform="translate(0 0)">
        <path id="Path_4" data-name="Path 4" d="M54.339,309.6h-.221a.418.418,0,0,0,0,.836h.221a.418.418,0,0,0,0-.836Z" transform="translate(-53.7 -309.6)" fill="#fff"/>
      </g>
    </g>
    <g id="Group_10" data-name="Group 10" transform="translate(0 137.068)">
      <g id="Group_9" data-name="Group 9">
        <path id="Path_5" data-name="Path 5" d="M4.895,232.3H.418a.418.418,0,1,0,0,.836H4.895a.418.418,0,1,0,0-.836Z" transform="translate(0 -232.3)" fill="#fff"/>
      </g>
    </g>
  </g>
</svg>
