<svg xmlns="http://www.w3.org/2000/svg" xmlns:xlink="http://www.w3.org/1999/xlink" width="651.724" height="651.724" viewBox="0 0 651.724 651.724">
  <defs>
    <clipPath id="clip-path">
      <rect id="Rectangle_30" data-name="Rectangle 30" width="651.724" height="651.724" fill="none"/>
    </clipPath>
  </defs>
  <g id="Group_79" data-name="Group 79" transform="translate(0 0.003)">
    <path id="Path_99" data-name="Path 99" d="M499.456,911.757l17.587,1.849-6.534-22.421Z" transform="translate(-243.317 -434.155)" fill="#fff"/>
    <path id="Path_100" data-name="Path 100" d="M759.635,939.1l17.587,1.849-6.534-22.421Z" transform="translate(-370.067 -447.477)" fill="#fff"/>
    <g id="Group_78" data-name="Group 78" transform="translate(0 -0.003)">
      <g id="Group_77" data-name="Group 77" clip-path="url(#clip-path)">
        <path id="Path_101" data-name="Path 101" d="M365.871,231.556l-14.992,18.168c-6.889,41.985-6.3,87.69-13.628,129.265-9.638,54.677-59.541,80.637-111.812,63.018-56.6-19.08-42.923-91.468-1.261-118.787C214.524,350,208.885,380.427,233.2,401.3c16.011,13.719,37.155,19.716,55.988,7.368,40.586-26.584,26.419-130.459,23.034-173.017,1.416-7.551,24.584-36.895,30.042-37.281l-133.2-14L182.153,440.411,636.826,488.2l26.911-256.044L342.264,198.368ZM503.96,264.247,492.916,400.226c-3.557,54.146,56.358,65.21,87.521,28.143,7.945-9.423,10.423-12.24-1.524-19.535a52.839,52.839,0,0,0-43.868-6.663,147.712,147.712,0,0,0-18.3,8.875c21.4-51.552,74.16-35.386,110.786-9.925a155.409,155.409,0,0,1,16.953,13.537,6.409,6.409,0,0,1-2.2,4.687c-31.555,37.874-123.466,86.118-159.612,31.1-5.56-8.456-13.375-31.319-12.36-40.965l7.671-72.855-15.925,36.8c-13.754,27.469-46.721,71.357-76.8,81.2-26.071,8.53-52.92.654-78.906-3.657-.363-4.75,1.434-2.585,3.992-3.3A333.525,333.525,0,0,0,347.28,435.7C423.3,403.859,470.638,332.067,475.4,250.3Zm-78.253,95.794c-.295,3.389.428,4.9-3.762,3.777-6.667-28.638-28.664-53.395-58.833-57.476l4.3-40.916a89.9,89.9,0,0,1,58.294,94.615" transform="translate(-88.738 -89.816)" fill="#fff"/>
        <path id="Path_102" data-name="Path 102" d="M359.921,1.808C180.953-17,20.622,112.832,1.811,291.8S112.835,631.1,291.8,649.909,631.1,538.886,649.912,359.918,538.889,20.619,359.921,1.808M216.859,501.514l-14.583-1.533,2.8-26.61-26.894-2.827-2.8,26.61L160.8,495.622l6.967-66.289,14.584,1.533L179.592,457.1l26.894,2.827,2.757-26.232,14.584,1.533Zm65.248,6.858-4.5-15.518-28.031-2.946-7.652,14.241-14.881-1.564,35.427-63.776,13.447,1.413,21.433,69.752Zm73.107,7.684-47.633-5.006,6.967-66.289,14.584,1.533-5.574,53.031,33.05,3.473Zm60.323,6.34-4.5-15.518-28-2.944-7.652,14.241L360.5,516.611l35.427-63.776,13.461,1.415L430.783,524Zm73.093,7.682L441,525.071l6.968-66.289,14.583,1.533-5.573,53.031,33.05,3.474Zm59.458-131.7L93.415,350.592,120.326,94.549l133.2,14h0L575,142.337Z" transform="translate(0 0.003)" fill="#fff"/>
      </g>
    </g>
  </g>
</svg>
